<svg id="Layer_1" data-name="Layer 1" xmlns="http://www.w3.org/2000/svg" viewBox="0 0 339.91 301"><defs><style>.cls-1{fill:#fff;}</style></defs><path class="cls-1" d="M79.5,99.5v11.06H93.63L93.5,389.5h-14v10.67l60,.33v-11h-15v-84s40-52,51-8v92l-14,0v11h60.38V389.66l-16.38-.16v-101s-17-55-81,3l-.1-192Z" transform="translate(-79.5 -99.5)"/><path class="cls-1" d="M260,143c-3.19-5.64-11.25-19.45-28-27a59.93,59.93,0,0,0-23-5,57.05,57.05,0,0,0-23,4c-18.66,7.6-27.23,23.77-30,29a70.89,70.89,0,0,0-8,35c.09,6.42.67,26.53,15,44a55.85,55.85,0,0,0,20,16c10.77,5,20.36,5,26,5s14.85-.21,25-5c11.3-5.33,17.54-13.41,21-18,13-17.29,14-36.12,14-43A72.47,72.47,0,0,0,260,143Zm-23,59a47.7,47.7,0,0,1-2,14,33.69,33.69,0,0,1-4,9c-1.74,2.7-4.25,6.59-9,9-3.78,1.92-7.09,1.95-12,2-4.37,0-8.34.08-13-2a24.31,24.31,0,0,1-9-7,26.12,26.12,0,0,1-5-11c-3-13.32-3-28.79-3-37,0-11.3-.06-22,2-34,.6-3.5,1.91-10.2,7-16a24,24,0,0,1,6-5c5.08-2.9,9.88-3,14-3s7.89-.09,12,2a22.07,22.07,0,0,1,7,6,35.78,35.78,0,0,1,7,16c1.58,7.78,1.56,12.36,2,29C237,174,237.19,181.27,237,202Z" transform="translate(-79.5 -99.5)"/><polygon class="cls-1" points="164.5 189.5 175.49 189.5 175.5 220.5 200.15 220.5 200.15 234.34 175.49 234.34 175.5 265.5 164.28 265.5 164.28 234.34 139.5 234.5 139.5 220.35 164.5 220.5 164.5 189.5"/><polygon class="cls-1" points="213.5 289.5 200.15 289.5 200.15 300.49 259.97 300.49 259.97 289.5 244.73 289.5 244.5 236.5 260.5 219.5 295.5 289.5 279.5 289.5 279.55 300.49 339.91 300.49 339.91 289.64 331.5 289.5 284.5 194.5 308.5 172.5 329.59 172.5 329.5 162.5 279.55 162.5 279.5 172.5 295.5 172.5 244.5 223.5 244.5 0.5 199.14 0.5 199.14 11.48 213.55 11.48 213.5 289.5"/></svg>